# xmcd CD database file
#
# Track frame offsets:
#	150
#	17857
#	59821
#	107906
#	138899
#	159555
#	195356
#	233247
#
# Disc length: 3628 seconds
#
# Revision: 0
# Processed by: cddbd v1.5PL3 Copyright (c) Steve Scherf et al.
# Submitted via: CDex 1.50beta10
#
DISCID=6a0e2a08
DTITLE=Vic Lewis and West Coast All-Stars - With Love To Gerry
DYEAR=2001
DGENRE=Jazz
TTITLE0=Noblesse, Trombone Choir
TTITLE1=I'm Gonna Go Fishing
TTITLE2=Go Home
TTITLE3=Walkin' Shoes
TTITLE4=Ballade
TTITLE5=Bwebidda Bobbida
TTITLE6=I Hears The Shadows Dancing
TTITLE7=Noblesse, Full Band
EXTD=YEAR: 2001
EXTT0=
EXTT1=
EXTT2=
EXTT3=
EXTT4=
EXTT5=
EXTT6=
EXTT7=
PLAYORDER=
